<?xml version="1.0" encoding="UTF-8"?>
<svg xmlns="http://www.w3.org/2000/svg" width="152" height="147" xmlns:xlink="http://www.w3.org/1999/xlink" version="1.1" viewBox="0 0 152 147">
  <defs>
    <mask id="mask" x="-21.5" y="-28" width="196" height="196.2" maskUnits="userSpaceOnUse">
      <g id="mask-2">
        <polygon id="path-1-2" data-name="path-1" points="50.8 .2 0 58.7 25.2 132 101.4 146.7 152.2 88.2 126.9 14.9 50.8 .2" style="fill: #fff; fill-rule: evenodd;"/>
      </g>
    </mask>
  </defs>
  <!-- Generator: Adobe Illustrator 28.6.0, SVG Export Plug-In . SVG Version: 1.2.0 Build 709)  -->
  <g>
    <g id="Layer_1">
      <g id="Desktop">
        <g id="Scroll---tab">
          <g id="Hexagon">
            <g id="Color-_x2F_-Grey-02">
              <g id="Mask">
                <polygon id="path-1" points="50.8 .5 0 58.8 25.2 131.9 101.2 146.6 152 88.3 126.8 15.3 50.8 .5" style="fill: #27377a; fill-rule: evenodd;"/>
              </g>
              <g style="mask: url(#mask);">
                <g id="Color-_x2F_-Beige">
                  <g id="Rectangle">
                    <rect x="-7.2" y="-13.5" width="167.5" height="167.2" transform="translate(-6.9 131.9) rotate(-79)" style="fill: #d8bc92;"/>
                  </g>
                </g>
              </g>
            </g>
            <g id="Group-9" style="opacity: .6;">
              <path id="Fill-1" d="M97.5,92.2c-.2.8-1,1.4-1.8,1.2l-30.8-6c-.4,0-.8,0-1.2.2l-7.9,5.3,1.1-5.5c.2-.9-.4-1.7-1.2-1.8l-6.2-1.2c-.8-.2-1.4-1-1.2-1.8l6-30.8c.2-.8,1-1.4,1.8-1.2l46.2,9c.8.2,1.4,1,1.2,1.8l-6,30.8ZM102.9,56.5l-46.2-9c-2.5-.5-5,1.2-5.5,3.7l-6,30.8c-.5,2.5,1.2,5,3.7,5.5l4.6.9-1.5,7.7c-.1.6.1,1.3.7,1.6.2.1.4.2.6.2.4,0,.8,0,1.2-.2l10.5-7.1,30.2,5.9c2.5.5,5-1.2,5.5-3.7l6-30.8c.5-2.5-1.2-5-3.7-5.5h0Z" style="fill: #fff; fill-rule: evenodd;"/>
              <path id="Fill-3" d="M71.5,69.6c.9.2,1.7-.4,1.8-1.2l.6-3.1c.2-.9-.4-1.7-1.2-1.8s-1.7.4-1.8,1.2l-.6,3.1c-.2.9.4,1.7,1.2,1.8" style="fill: #fff; fill-rule: evenodd;"/>
              <path id="Fill-5" d="M80.8,71.4c.9.2,1.7-.4,1.8-1.2l.6-3.1c.2-.9-.4-1.7-1.2-1.8s-1.7.4-1.8,1.2l-.6,3.1c-.2.9.4,1.7,1.2,1.8" style="fill: #fff; fill-rule: evenodd;"/>
              <path id="Fill-7" d="M81.5,78.4c-4.3,2.8-10.3,1.7-13.3-2.6-.5-.7-1.5-.9-2.2-.4-.7.5-.9,1.5-.4,2.2,2,2.8,4.9,4.6,8.1,5.2s6.6,0,9.5-1.8c.7-.5.9-1.4.5-2.2-.5-.7-1.4-.9-2.2-.5" style="fill: #fff; fill-rule: evenodd;"/>
            </g>
          </g>
        </g>
      </g>
    </g>
  </g>
</svg>