<?xml version="1.0" encoding="UTF-8"?>
<svg xmlns="http://www.w3.org/2000/svg" width="266" height="114" xmlns:xlink="http://www.w3.org/1999/xlink" version="1.1" viewBox="0 0 266 114">
  <defs>
    <mask id="mask" x="-35.5" y="-47.9" width="339.2" height="208" maskUnits="userSpaceOnUse">
      <g id="mask-2">
        <path id="path-1-2" data-name="path-1" d="M265.3,33.7c-1.6-8.8-7.9-15.6-16-18.1l-2.6-14.9L7.1,43.2l2.6,14.9c-6.7,5.1-10.3,13.7-8.8,22.5,1.6,8.8,7.9,15.6,16,18.1l2.6,14.9,239.6-42.5-2.6-14.9c6.7-5.1,10.3-13.6,8.8-22.5Z" style="fill: #fff; fill-rule: evenodd;"/>
      </g>
    </mask>
  </defs>
  <!-- Generator: Adobe Illustrator 28.6.0, SVG Export Plug-In . SVG Version: 1.2.0 Build 709)  -->
  <g>
    <g id="Layer_1">
      <g id="Desktop">
        <g id="Scroll---tab">
          <g id="Tag">
            <g id="Color-_x2F_-Blue">
              <g id="Mask">
                <path id="path-1" d="M265.2,33.7c-1.6-8.8-7.9-15.6-15.9-18.1l-2.6-14.9L7,42.9l2.6,14.9C3,63-.7,71.5.8,80.3c1.6,8.8,7.9,15.6,15.9,18.1l2.6,14.9,239.6-42.3-2.6-14.9c6.7-5.1,10.3-13.6,8.8-22.5Z" style="fill: #d8d8d8; fill-rule: evenodd;"/>
              </g>
              <g style="mask: url(#mask);">
                <g id="Color-_x2F_-BLUE">
                  <g id="Rectangle">
                    <rect x="-24.4" y="-21.4" width="317" height="155" transform="translate(-7.7 24.3) rotate(-10.1)" style="fill: #1e315c;"/>
                  </g>
                </g>
              </g>
            </g>
            <g id="Group-10" style="opacity: .6;">
              <g id="Group-7">
                <path id="Stroke-1" d="M152.8,63.1h0c-7.1,1.2-13.8-3.5-15-10.6l-1.3-7.2c-.1-.6.3-1.1.9-1.2l23.5-4.1c.6-.1,1.1.3,1.2.9l1.3,7.2c1.2,7.1-3.5,13.8-10.5,15.1Z" style="fill: none; stroke: #fff; stroke-linecap: round; stroke-miterlimit: 4; stroke-width: 1px;"/>
                <path id="Stroke-3" d="M145.7,69.3l15.8-2.8" style="fill: none; stroke: #fff; stroke-linecap: round; stroke-miterlimit: 4; stroke-width: 1px;"/>
                <path id="Stroke-5" d="M162.9,42.7l.9-.2c2.8-.5,5.4,1.4,5.9,4.1s-1.4,5.4-4.1,5.9l-1.9.3" style="fill: none; stroke: #fff; stroke-linecap: round; stroke-miterlimit: 4; stroke-width: 1px;"/>
              </g>
              <path id="Stroke-1-2" data-name="Stroke-1" d="M103.3,77.1c-.2,0-.3,0-.5-.1l-12.6-9.2c-3.5-2.6-4.4-7.6-2-11.2,2.4-3.6,7.2-4.5,10.7-1.9.1.1.3.2.4.3,0-.2.2-.3.3-.5,2.4-3.6,7.2-4.5,10.7-1.9,3.5,2.6,4.4,7.6,2,11.2l-8.7,12.9c-.1.2-.3.3-.4.3Z" style="fill: #fff; fill-rule: evenodd;"/>
            </g>
          </g>
        </g>
      </g>
    </g>
  </g>
</svg>