<?xml version="1.0" encoding="UTF-8"?>
<svg width="158px" height="158px" viewBox="0 0 158 158" version="1.1" xmlns="http://www.w3.org/2000/svg" xmlns:xlink="http://www.w3.org/1999/xlink">
    <!-- Generator: Sketch 58 (84663) - https://sketch.com -->
    <title>Thumbs up@1x</title>
    <desc>Created with Sketch.</desc>
    <defs>
        <polygon id="path-1" points="159.047619 80 153.239563 89.6464012 156.372959 100.464262 148.258267 108.275722 148.465605 119.534176 138.604091 124.969024 135.893146 135.895738 124.963841 138.604091 119.528993 148.468197 108.27313 148.260859 100.464262 156.372959 89.6464012 153.239563 80 159.047619 70.3535988 153.239563 59.5357377 156.372959 51.7242779 148.260859 40.4658236 148.465605 35.0309758 138.604091 24.1042623 135.893146 21.3933177 124.963841 11.5318033 119.528993 11.7391413 108.27313 3.62704137 100.464262 6.76043716 89.6464012 0.952380952 80 6.76043716 70.3535988 3.62704137 59.5357377 11.741733 51.7242779 11.534395 40.4658236 21.3959094 35.0309758 24.106854 24.1042623 35.0361593 21.3933177 40.471007 11.5318033 51.7268696 11.7391413 59.5357377 3.62704137 70.3535988 6.76043716 80 0.952380952 89.6464012 6.76043716 100.464262 3.62704137 108.275722 11.741733 119.534176 11.534395 124.969024 21.3959094 135.895738 24.106854 138.606682 35.0361593 148.468197 40.471007 148.260859 51.7268696 156.372959 59.5357377 153.239563 70.3535988"></polygon>
    </defs>
    <g id="Desktop" stroke="none" stroke-width="1" fill="none" fill-rule="evenodd">
        <g id="Scroll---tab" transform="translate(-965.000000, -244.000000)">
            <g id="Thumbs-up" transform="translate(964.000000, 243.000000)">
                <g id="Color-/-BLUE">
                    <mask id="mask-2" fill="white">
                        <use xlink:href="#path-1"></use>
                    </mask>
                    <use id="Mask" fill="#D8D8D8" xlink:href="#path-1"></use>
                    <g mask="url(#mask-2)" fill="#1E315C" id="Rectangle">
                        <g transform="translate(-23.809524, -23.809524)">
                            <rect x="0" y="0" width="206" height="206"></rect>
                        </g>
                    </g>
                </g>
                <g id="like" opacity="0.601260231" transform="translate(79.809524, 79.714286) rotate(12.000000) translate(-79.809524, -79.714286) translate(56.000000, 54.000000)" fill="#FFFFFF" fill-rule="nonzero">
                    <path d="M46.1899179,33.8072937 C47.1938238,32.5127567 47.6752889,31.125013 47.6138253,29.6958441 C47.5523617,28.121687 46.8557739,26.8892877 46.2821133,26.1332781 C46.9479693,24.4555581 47.2040678,21.8147025 44.9811331,19.7641558 C43.3523469,18.2624928 40.5864836,17.5893335 36.7552507,17.7757469 C34.0610949,17.9000224 31.8074285,18.4074809 31.715233,18.4281935 L31.7049891,18.4281935 C31.1927922,18.5214002 30.6498634,18.6353195 30.0966908,18.759595 C30.055715,18.0967921 30.1683983,16.4501409 31.3771831,12.7425868 C32.8113344,8.33080452 32.7293829,4.95465188 31.1108407,2.69697926 C29.4103469,0.32538738 26.6957032,0.138974045 25.8966761,0.138974045 C25.1283807,0.138974045 24.4215489,0.460019234 23.919596,1.05032813 C22.7825188,2.38629037 22.91569,4.85108892 23.0591051,5.99028153 C21.7069053,9.65641046 17.9166481,18.6456758 14.7102954,21.1415432 C14.6488318,21.1829684 14.5976121,21.2347499 14.5463924,21.2865314 C13.6039501,22.2910921 12.9688259,23.3785032 12.5385805,24.3312825 C11.9341881,23.999881 11.2478443,23.8134677 10.5102807,23.8134677 L4.26147834,23.8134677 C1.90537253,23.8134677 0,25.7500951 0,28.121687 L0,44.9506687 C0,47.3326169 1.91561646,49.258888 4.26147834,49.258888 L10.5102807,49.258888 C11.4219912,49.258888 12.2722381,48.9689117 12.9688259,48.4718095 L15.3761514,48.7617858 C15.7449332,48.8135673 22.3010537,49.6524273 29.0313212,49.5177954 C30.2503498,49.6110021 31.3976709,49.6627836 32.4630405,49.6627836 C34.2967055,49.6627836 35.8947599,49.5177954 37.2264718,49.2278191 C40.361117,48.5546599 42.5021001,47.2083413 43.5879575,45.2302887 C44.4177165,43.7182694 44.4177165,42.2166064 44.2845453,41.2638272 C46.3230891,39.3996938 46.6816269,37.3387908 46.6099193,35.8889093 C46.5689436,35.0500493 46.3845527,34.3354649 46.1899179,33.8072937 Z M4.26147834,46.462688 C3.43171934,46.462688 2.76586335,45.7791724 2.76586335,44.9506687 L2.76586335,28.1113307 C2.76586335,27.2724707 3.44196327,26.5993114 4.26147834,26.5993114 L10.5102807,26.5993114 C11.3400397,26.5993114 12.0058957,27.282827 12.0058957,28.1113307 L12.0058957,44.9403124 C12.0058957,45.7791724 11.3297958,46.4523317 10.5102807,46.4523317 L4.26147834,46.4523317 L4.26147834,46.462688 Z M43.5674697,32.5956071 C43.1372242,33.0512841 43.0552727,33.745156 43.3830788,34.2836834 C43.3830788,34.2940397 43.8030802,35.0189804 43.8542999,36.0131849 C43.9260075,37.3698597 43.2806394,38.5711901 41.9284395,39.5964634 C41.4469744,39.9692901 41.2523396,40.6113805 41.4572184,41.1913331 C41.4572184,41.2016894 41.8977077,42.5687205 41.180632,43.8632576 C40.4942882,45.1060131 38.9679413,45.9966546 36.6528113,46.4937569 C34.7986585,46.8976524 32.2786496,46.9701465 29.1849803,46.7215954 C29.1440045,46.7215954 29.0927848,46.7215954 29.0415651,46.7215954 C22.4547128,46.8665835 15.7961529,45.9966546 15.7244453,45.9862983 L15.7142014,45.9862983 L14.6795636,45.8620228 C14.7410272,45.5720465 14.771759,45.2613576 14.771759,44.9506687 L14.771759,28.1113307 C14.771759,27.66601 14.7000515,27.2310455 14.5771242,26.8271499 C14.7615151,26.1332781 15.273712,24.5901899 16.4824967,23.2749403 C21.0820251,19.5880987 25.579114,7.15018673 25.7737488,6.61165931 C25.8557003,6.39417709 25.8761882,6.15598227 25.8352124,5.91778745 C25.6610655,4.75788225 25.7225291,3.33906964 25.9683836,2.91446149 C26.5113124,2.92481778 27.9761955,3.08016223 28.8571742,4.31256151 C29.9020559,5.7727993 29.8610802,8.382586 28.734247,11.841589 C27.0132653,17.1129439 26.8698502,19.8884313 28.232294,21.1104743 C28.9083939,21.7214958 29.8098605,21.7525647 30.4654725,21.5143699 C31.0903528,21.3693817 31.6845012,21.2451062 32.2479178,21.1518995 C32.2888936,21.1415432 32.3401133,21.1311869 32.381089,21.1208306 C35.5259781,20.4269587 41.1601441,20.0023506 43.1167364,21.8043462 C44.7762544,23.337078 43.5982015,25.3669121 43.4650303,25.5843944 C43.0860046,26.164347 43.1986879,26.9203566 43.7108848,27.3863899 C43.7211287,27.3967462 44.7967423,28.4220196 44.8479619,29.799407 C44.8889377,30.7211174 44.4586923,31.6635404 43.5674697,32.5956071 Z" id="Shape"></path>
                </g>
            </g>
        </g>
    </g>
</svg>