<?xml version="1.0" encoding="UTF-8"?>
<svg width="20px" height="16px" viewBox="0 0 20 16" version="1.1" xmlns="http://www.w3.org/2000/svg" xmlns:xlink="http://www.w3.org/1999/xlink">
    <!-- Generator: Sketch 58 (84663) - https://sketch.com -->
    <title>Address@1x</title>
    <desc>Created with Sketch.</desc>
    <g id="Desktop" stroke="none" stroke-width="1" fill="none" fill-rule="evenodd">
        <g id="Review-Content" transform="translate(-957.000000, -984.000000)" fill="#AB9E91" fill-rule="nonzero">
            <g id="Group-10" transform="translate(932.000000, 827.000000)">
                <g id="Group-6-Copy" transform="translate(25.000000, 153.000000)">
                    <path d="M20,9.33333333 C20,6.39244444 17.6075556,4 14.6666667,4 C13.3653333,4 12.1097778,4.47822222 11.1311111,5.34711111 C10.9475556,5.51022222 10.9306667,5.79111111 11.0937778,5.97466667 C11.2568889,6.15866667 11.5377778,6.17511111 11.7213333,6.012 C12.5373333,5.28755556 13.5826667,4.88888889 14.6666667,4.88888889 C17.1173333,4.88888889 19.1111111,6.88266667 19.1111111,9.33333333 C19.1111111,12.3986667 15.6933333,15.7875556 14.6666667,16.736 C14.0648889,16.1813333 12.6448889,14.7911111 11.5706667,13.1146667 C11.4382222,12.9071111 11.1631111,12.8462222 10.9564444,12.98 C10.7497778,13.1124444 10.6897778,13.3871111 10.8217778,13.5937778 C12.2844444,15.8768889 14.2933333,17.5995556 14.3782222,17.672 C14.4617778,17.7426667 14.5635556,17.7777778 14.6662222,17.7777778 C14.7684444,17.7777778 14.8711111,17.7426667 14.9542222,17.672 C15.1604444,17.4964444 20,13.3337778 20,9.33333333 Z M10.6666667,9.33333333 C10.6666667,6.39244444 8.27422222,4 5.33333333,4 C2.39244444,4 0,6.39244444 0,9.33333333 C0,13.3337778 4.83955556,17.4964444 5.04533333,17.672 C5.12844444,17.7426667 5.23111111,17.7777778 5.33333333,17.7777778 C5.43555556,17.7777778 5.53822222,17.7426667 5.62133333,17.672 C5.82711111,17.4964444 10.6666667,13.3337778 10.6666667,9.33333333 Z M5.33333333,16.736 C4.30622222,15.788 0.888888889,12.4026667 0.888888889,9.33333333 C0.888888889,6.88266667 2.88266667,4.88888889 5.33333333,4.88888889 C7.784,4.88888889 9.77777778,6.88266667 9.77777778,9.33333333 C9.77777778,12.3986667 6.36,15.7875556 5.33333333,16.736 Z M5.33333333,7.11111111 C4.108,7.11111111 3.11111111,8.108 3.11111111,9.33333333 C3.11111111,10.5586667 4.108,11.5555556 5.33333333,11.5555556 C6.55866667,11.5555556 7.55555556,10.5586667 7.55555556,9.33333333 C7.55555556,8.108 6.55866667,7.11111111 5.33333333,7.11111111 Z M5.33333333,10.6666667 C4.59822222,10.6666667 4,10.0684444 4,9.33333333 C4,8.59822222 4.59822222,8 5.33333333,8 C6.06844444,8 6.66666667,8.59822222 6.66666667,9.33333333 C6.66666667,10.0684444 6.06844444,10.6666667 5.33333333,10.6666667 Z M16.8888889,9.33333333 C16.8888889,8.108 15.892,7.11111111 14.6666667,7.11111111 C13.4413333,7.11111111 12.4444444,8.108 12.4444444,9.33333333 C12.4444444,10.5586667 13.4413333,11.5555556 14.6666667,11.5555556 C15.892,11.5555556 16.8888889,10.5586667 16.8888889,9.33333333 Z M13.3333333,9.33333333 C13.3333333,8.59822222 13.9315556,8 14.6666667,8 C15.4017778,8 16,8.59822222 16,9.33333333 C16,10.0684444 15.4017778,10.6666667 14.6666667,10.6666667 C13.9315556,10.6666667 13.3333333,10.0684444 13.3333333,9.33333333 Z M6.35111111,18.7955556 C6.27111111,18.8795556 6.22222222,18.9955556 6.22222222,19.1111111 C6.22222222,19.2266667 6.27111111,19.3422222 6.35111111,19.4266667 C6.43555556,19.5066667 6.55111111,19.5555556 6.66666667,19.5555556 C6.78222222,19.5555556 6.89777778,19.5066667 6.97777778,19.4266667 C7.06222222,19.3422222 7.11111111,19.2311111 7.11111111,19.1111111 C7.11111111,18.9955556 7.06222222,18.8795556 6.98222222,18.7955556 C6.81333333,18.6311111 6.52,18.6311111 6.35111111,18.7955556 Z M4.12888889,18.7955556 C4.04888889,18.8795556 4,18.9955556 4,19.1111111 C4,19.2266667 4.04888889,19.3422222 4.12888889,19.4266667 C4.21333333,19.5066667 4.32888889,19.5555556 4.44444444,19.5555556 C4.56,19.5555556 4.67555556,19.5066667 4.76,19.4266667 C4.84,19.3422222 4.88888889,19.2266667 4.88888889,19.1111111 C4.88888889,18.9955556 4.84,18.8795556 4.76,18.7955556 C4.59555556,18.6311111 4.30222222,18.6266667 4.12888889,18.7955556 Z M8.57333333,18.7955556 C8.49333333,18.8795556 8.44444444,18.9955556 8.44444444,19.1111111 C8.44444444,19.2266667 8.49333333,19.3422222 8.57333333,19.4266667 C8.65777778,19.5066667 8.77333333,19.5555556 8.88888889,19.5555556 C9.00444444,19.5555556 9.12,19.5066667 9.20444444,19.4266667 C9.28444444,19.3422222 9.33333333,19.2266667 9.33333333,19.1111111 C9.33333333,18.9955556 9.28444444,18.8795556 9.20444444,18.7955556 C9.03555556,18.6311111 8.74222222,18.6311111 8.57333333,18.7955556 Z M13.0177778,18.7955556 C12.9373333,18.8795556 12.8888889,18.9955556 12.8888889,19.1111111 C12.8888889,19.2266667 12.9373333,19.3422222 13.0177778,19.4266667 C13.1022222,19.5066667 13.2177778,19.5555556 13.3333333,19.5555556 C13.4488889,19.5555556 13.5644444,19.5066667 13.6488889,19.4266667 C13.7293333,19.3422222 13.7777778,19.2266667 13.7777778,19.1111111 C13.7777778,18.9955556 13.7293333,18.8795556 13.6488889,18.7955556 C13.48,18.6311111 13.1866667,18.6311111 13.0177778,18.7955556 Z M15.24,18.7955556 C15.1595556,18.8795556 15.1111111,18.9955556 15.1111111,19.1111111 C15.1111111,19.2266667 15.1595556,19.3422222 15.24,19.4266667 C15.3244444,19.5066667 15.44,19.5555556 15.5555556,19.5555556 C15.6711111,19.5555556 15.7866667,19.5066667 15.8711111,19.4266667 C15.9515556,19.3422222 16,19.2266667 16,19.1111111 C16,18.9955556 15.9515556,18.8795556 15.8711111,18.7955556 C15.7022222,18.6311111 15.4088889,18.6311111 15.24,18.7955556 Z M10.7955556,18.7955556 C10.7151111,18.8795556 10.6666667,18.9955556 10.6666667,19.1111111 C10.6666667,19.2311111 10.7151111,19.3462222 10.7955556,19.4266667 C10.88,19.5066667 10.9955556,19.5555556 11.1111111,19.5555556 C11.2266667,19.5555556 11.3422222,19.5066667 11.4217778,19.4266667 C11.5066667,19.3422222 11.5555556,19.2311111 11.5555556,19.1111111 C11.5555556,18.9955556 11.5071111,18.8795556 11.4266667,18.7955556 C11.2577778,18.6311111 10.9644444,18.6311111 10.7955556,18.7955556 Z" id="Address"></path>
                </g>
            </g>
        </g>
    </g>
</svg>