<?xml version="1.0" encoding="UTF-8"?>
<svg width="18px" height="19px" viewBox="0 0 18 19" version="1.1" xmlns="http://www.w3.org/2000/svg" xmlns:xlink="http://www.w3.org/1999/xlink">
    <!-- Generator: Sketch 58 (84663) - https://sketch.com -->
    <title>Shape@1x</title>
    <desc>Created with Sketch.</desc>
    <g id="Desktop" stroke="none" stroke-width="1" fill="none" fill-rule="evenodd">
        <g id="Review-Content" transform="translate(-957.000000, -935.000000)" fill="#AB9E91" fill-rule="nonzero" stroke="#AB9E91" stroke-width="0.3">
            <g id="Group-10" transform="translate(932.000000, 827.000000)">
                <g id="Group-4-Copy" transform="translate(26.000000, 106.000000)">
                    <g id="noun_call_1322485" transform="translate(0.000000, 2.000000)">
                        <path d="M12.2181818,18.230303 C13.0666667,18.230303 14.1818182,18.0121212 15.2,17.0666667 C15.3212121,16.9939394 15.7333333,16.6787879 15.8787879,16.1212121 C16,15.6606061 15.8787879,15.2 15.5636364,14.6909091 L13.3333333,11.9272727 C13.1151515,11.6121212 12.4363636,11.1272727 11.4666667,11.5878788 L9.91515152,12.8 C9.21212121,12.3151515 6.20606061,9.98787879 5.09090909,6.76363636 L6.23030303,5.86666667 C6.25454545,5.84242424 6.86060606,5.43030303 6.95757576,4.7030303 C7.03030303,4.26666667 6.88484848,3.80606061 6.54545455,3.36969697 L4.31515152,0.63030303 L4.29090909,0.606060606 C3.95151515,0.315151515 3.1030303,-0.096969697 2.20606061,0.533333333 C2.10909091,0.606060606 -0.242424242,2.20606061 0.096969697,5.43030303 C0.0727272727,5.76969697 0.0242424242,8.96969697 4.84848485,14.2060606 C4.96969697,14.3272727 7.63636364,17.1636364 10.9090909,18.0363636 C10.9575758,18.0606061 11.4909091,18.230303 12.2181818,18.230303 Z M5.18787879,13.8909091 C0.363636364,8.63030303 0.581818182,5.47878788 0.581818182,5.43030303 L0.581818182,5.40606061 L0.581818182,5.38181818 C0.242424242,2.44848485 2.37575758,0.993939394 2.47272727,0.921212121 C2.73939394,0.751515152 2.98181818,0.678787879 3.2,0.678787879 C3.61212121,0.678787879 3.9030303,0.896969697 3.95151515,0.945454545 L6.15757576,3.66060606 C6.42424242,4 6.52121212,4.31515152 6.47272727,4.63030303 C6.4,5.13939394 5.93939394,5.45454545 5.93939394,5.47878788 L4.53333333,6.59393939 L4.58181818,6.76363636 C5.81818182,10.6424242 9.62424242,13.2121212 9.76969697,13.3090909 L9.91515152,13.4060606 L11.6848485,12.0242424 C12.4848485,11.6606061 12.8727273,12.1454545 12.9454545,12.2181818 L15.1757576,14.9575758 C15.4181818,15.3454545 15.4909091,15.6848485 15.4181818,16 C15.3212121,16.4363636 14.9575758,16.6545455 14.9333333,16.6545455 L14.8848485,16.6787879 C13.2121212,18.2787879 11.1272727,17.6 11.030303,17.5757576 C7.87878788,16.7515152 5.21212121,13.9151515 5.18787879,13.8909091 Z" id="Shape"></path>
                    </g>
                </g>
            </g>
        </g>
    </g>
</svg>