<?xml version="1.0" encoding="UTF-8"?>
<svg width="20px" height="21px" viewBox="0 0 20 21" version="1.1" xmlns="http://www.w3.org/2000/svg" xmlns:xlink="http://www.w3.org/1999/xlink">
    <!-- Generator: Sketch 58 (84663) - https://sketch.com -->
    <title>Open hours@1x</title>
    <desc>Created with Sketch.</desc>
    <g id="Desktop" stroke="none" stroke-width="1" fill="none" fill-rule="evenodd">
        <g id="Review-Content" transform="translate(-956.000000, -840.000000)" fill="#AB9E91" fill-rule="nonzero">
            <g id="Group-10" transform="translate(932.000000, 827.000000)">
                <g id="Group-2-Copy" transform="translate(24.000000, 12.000000)">
                    <g id="Open-hours" transform="translate(0.000000, 1.000000)">
                        <path d="M10,0.157469565 C4.48230435,0.157469565 0,4.63981739 0,10.1574696 C0,15.675087 4.48230435,20.1574696 10,20.1574696 C15.5176957,20.1574696 20,15.675087 20,10.1574696 C20,4.63981739 15.5176957,0.157469565 10,0.157469565 L10,0.157469565 Z M10,1.02703478 C15.0477391,1.02703478 19.1304348,5.10973043 19.1304348,10.1574783 C19.1304348,15.2051739 15.0477391,19.287913 10,19.287913 C4.95226087,19.287913 0.869565217,15.2051739 0.869565217,10.1574783 C0.869565217,5.10973043 4.95226087,1.02703478 10,1.02703478 Z M10,4.07051304 C9.75986957,4.07051304 9.56521739,4.26516522 9.56521739,4.50529565 L9.56521739,10.1574783 C9.56521739,10.2775652 9.60886957,10.3913043 9.68752174,10.47 L13.0706522,13.8531304 C13.2403913,14.022913 13.5258696,14.0229565 13.6956522,13.8531304 C13.8654783,13.6833478 13.8654348,13.3979565 13.6956522,13.2281304 L10.4347826,9.96726087 L10.4347826,4.50529565 C10.4347826,4.26516522 10.2401304,4.07051304 10,4.07051304 Z" id="Shape"></path>
                    </g>
                </g>
            </g>
        </g>
    </g>
</svg>