<?xml version="1.0" encoding="UTF-8"?>
<svg width="26px" height="13px" viewBox="0 0 26 13" version="1.1" xmlns="http://www.w3.org/2000/svg" xmlns:xlink="http://www.w3.org/1999/xlink">
    <!-- Generator: Sketch 58 (84663) - https://sketch.com -->
    <title>Parking@1x</title>
    <desc>Created with Sketch.</desc>
    <g id="Desktop" stroke="none" stroke-width="1" fill="none" fill-rule="evenodd">
        <g id="Review-Content" transform="translate(-952.000000, -891.000000)" fill="#AB9E91">
            <g id="Group-10" transform="translate(932.000000, 827.000000)">
                <g id="Group-3-Copy" transform="translate(20.000000, 59.000000)">
                    <g id="Parking" transform="translate(0.000000, 5.000000)">
                        <path d="M2.47783112,10.2424242 L0.393939394,10.2424242 C0.176372576,10.2424242 0,10.0660517 0,9.84848485 L0,5.12121212 C0,4.92376852 0.146163333,4.7568233 0.341874788,4.73072836 L6.10722548,3.96201512 L9.55567206,0.130407727 C9.63037952,0.0473991818 9.73680815,0 9.84848485,0 L18.9090909,0 C19.0376388,0 19.1581012,0.0627194848 19.2318187,0.168030121 L21.87224,3.94006048 L25.6060606,3.93939394 C25.8236274,3.93939394 26,4.11576652 26,4.33333333 L26,9.84848485 C26,10.0660517 25.8236274,10.2424242 25.6060606,10.2424242 L22.7342901,10.2424242 C22.3952859,11.3814957 21.3400992,12.2121212 20.0909091,12.2121212 C18.841719,12.2121212 17.7865322,11.3814957 17.4475281,10.2424242 L7.76459312,10.2424242 C7.42558897,11.3814957 6.37040221,12.2121212 5.12121212,12.2121212 C3.87202203,12.2121212 2.81683527,11.3814957 2.47783112,10.2424242 L2.47783112,10.2424242 Z M2.36363636,9.45454545 L2.36363636,9.45454545 C2.36363636,7.93157852 3.59824518,6.6969697 5.12121212,6.6969697 C6.64417906,6.6969697 7.87878788,7.93157852 7.87878788,9.45454545 L17.3333333,9.45454545 C17.3333333,7.93157852 18.5679422,6.6969697 20.0909091,6.6969697 C21.613876,6.6969697 22.8484848,7.93157852 22.8484848,9.45454545 L25.2121212,9.45454545 L25.2121212,4.72727273 L6.32917724,4.72727273 L0.787878788,5.46611236 L0.787878788,9.45454545 L2.36363636,9.45454545 Z M20.9100446,3.93939394 L18.703984,0.787878788 L10.0239305,0.787878788 L7.18756685,3.93939394 L20.9100446,3.93939394 Z M20.0909091,11.4242424 C21.1787428,11.4242424 22.0606061,10.5423792 22.0606061,9.45454545 C22.0606061,8.36671176 21.1787428,7.48484848 20.0909091,7.48484848 C19.0030754,7.48484848 18.1212121,8.36671176 18.1212121,9.45454545 C18.1212121,10.5423792 19.0030754,11.4242424 20.0909091,11.4242424 Z M5.12121212,11.4242424 C6.20904582,11.4242424 7.09090909,10.5423792 7.09090909,9.45454545 C7.09090909,8.36671176 6.20904582,7.48484848 5.12121212,7.48484848 C4.03337842,7.48484848 3.15151515,8.36671176 3.15151515,9.45454545 C3.15151515,10.5423792 4.03337842,11.4242424 5.12121212,11.4242424 Z" id="Shape"></path>
                    </g>
                </g>
            </g>
        </g>
    </g>
</svg>