<?xml version="1.0" encoding="UTF-8"?>
<svg width="17px" height="11px" viewBox="0 0 17 11" version="1.1" xmlns="http://www.w3.org/2000/svg" xmlns:xlink="http://www.w3.org/1999/xlink">
    <!-- Generator: Sketch 58 (84663) - https://sketch.com -->
    <title>read@1x</title>
    <desc>Created with Sketch.</desc>
    <g id="Symbols" stroke="none" stroke-width="1" fill="none" fill-rule="evenodd" opacity="0.87">
        <g id="read-tag" transform="translate(-23.000000, -5.000000)" fill="#8B7E71" fill-rule="nonzero" stroke="#8B7E70" stroke-width="0.5">
            <g id="Group-5">
                <g id="Group-4" transform="translate(23.000000, 4.000000)">
                    <g id="Group-2">
                        <g id="read" transform="translate(0.000000, 2.000000)">
                            <g id="Group">
                                <path d="M8.25714286,0.242857143 C3.90028571,0.242857143 0.442,4.522 0.296285714,4.70657143 C0.223428571,4.794 0.223428571,4.92028571 0.296285714,5.00771429 C0.442,5.19228571 3.90028571,9.47142857 8.25714286,9.47142857 C12.614,9.47142857 16.0722857,5.19228571 16.218,5.00771429 C16.286,4.92028571 16.286,4.794 16.218,4.70657143 C16.0722857,4.522 12.614,0.242857143 8.25714286,0.242857143 Z M8.25714286,8.98571429 C4.58028571,8.98571429 1.462,5.61971429 0.801428571,4.85714286 C1.462,4.09457143 4.58028571,0.728571429 8.25714286,0.728571429 C11.934,0.728571429 15.0522857,4.09457143 15.7128571,4.85714286 C15.0522857,5.61971429 11.9388571,8.98571429 8.25714286,8.98571429 Z" id="Shape"></path>
                                <path d="M8.25714286,1.86028571 C6.60571429,1.86028571 5.26028571,3.20571429 5.26028571,4.85714286 C5.26028571,6.50857143 6.60571429,7.854 8.25714286,7.854 C9.90857143,7.854 11.254,6.50857143 11.254,4.85714286 C11.254,3.20571429 9.90857143,1.86028571 8.25714286,1.86028571 Z M8.25714286,7.36828571 C6.87285714,7.36828571 5.746,6.24142857 5.746,4.85714286 C5.746,3.47285714 6.87285714,2.346 8.25714286,2.346 C9.64142857,2.346 10.7682857,3.47285714 10.7682857,4.85714286 C10.7682857,6.24142857 9.64142857,7.36828571 8.25714286,7.36828571 Z" id="Shape"></path>
                            </g>
                        </g>
                    </g>
                </g>
            </g>
        </g>
    </g>
</svg>