<?xml version="1.0" encoding="UTF-8"?>
<svg width="25px" height="25px" viewBox="0 0 25 25" version="1.1" xmlns="http://www.w3.org/2000/svg" xmlns:xlink="http://www.w3.org/1999/xlink">
    <!-- Generator: Sketch 58 (84663) - https://sketch.com -->
    <title>Icon / Yellow@1x</title>
    <desc>Created with Sketch.</desc>
    <g id="Desktop" stroke="none" stroke-width="1" fill="none" fill-rule="evenodd">
        <g id="Search-/-Search" transform="translate(-369.000000, -156.000000)" stroke="#D8BC92">
            <g id="Header" transform="translate(148.000000, -23.000000)">
                <g id="Group-18">
                    <g id="Group-5" transform="translate(0.000000, 59.000000)">
                        <g id="Group-7" transform="translate(222.000000, 121.000000)">
                            <g id="Group-6">
                                <g id="Icon-/-Review-/-Yellow">
                                    <g id="Group">
                                        <path d="M21.757737,17.2166644 C22.8613352,15.2230738 23.3364797,12.9500648 23.1318138,10.6378725 C22.6600931,5.31066211 18.4769956,0.960179902 13.1845936,0.29368416 C12.6881456,0.231105095 12.1856109,0.19934002 11.691065,0.19934002 C8.38483547,0.19934002 5.23571935,1.62458325 3.05134819,4.1094862 C0.871542046,6.58925348 -0.133527378,9.90765643 0.29368416,13.2140762 C0.97539666,18.4893593 5.32892223,22.6585714 10.6452907,23.1274389 C10.9929945,23.1580627 11.3445025,23.1736599 11.6906846,23.1736599 C13.6312066,23.1736599 15.5416755,22.682728 17.2212294,21.7533622 L22.4014075,23.0667619 C22.6136819,23.1204011 22.8377492,23.0429857 22.9724178,22.8706554 C23.0774137,22.7359868 23.1135536,22.5632762 23.071327,22.3970326 L21.757737,17.2166644 Z M22.6650385,22.6313714 C22.6250944,22.6825379 22.5615643,22.7057435 22.4972733,22.6891952 L17.2417721,21.3565842 C17.1926979,21.3442206 17.1413413,21.3510681 17.0983538,21.3757954 C15.1722877,22.4592314 12.9247668,22.9383703 10.6795284,22.7394106 C5.54385948,22.2865207 1.33869769,18.2595856 0.680190801,13.1642412 C0.260968037,9.921732 1.20707241,6.7975334 3.34389108,4.36665009 C5.45446083,1.96601016 8.49667894,0.588890059 11.691065,0.588890059 C12.1692529,0.588890059 12.6554295,0.619704087 13.1358999,0.68019084 C18.2476024,1.32405155 22.2884228,5.52617001 22.7437854,10.6721103 C22.9438863,12.932185 22.4721656,15.1528863 21.3803604,17.093979 C21.3556331,17.1375371 21.3487856,17.1888937 21.3613395,17.2373973 L22.6939504,22.4927083 C22.7106889,22.559472 22.6829183,22.6081657 22.6650385,22.6313714 Z" id="Shape" fill-rule="nonzero"></path>
                                        <path d="M8.63416271,11.1050281 C8.76335332,11.1050281 8.86789271,11.017912 8.86789271,10.9102531 L8.86789271,7.54791165 C8.86789271,7.4402528 8.76335332,7.35313665 8.63416271,7.35313665 C8.50497209,7.35313665 8.40043271,7.4402528 8.40043271,7.54791165 L8.40043271,10.9102531 C8.40043271,11.017912 8.50497209,11.1050281 8.63416271,11.1050281 Z" id="Path" fill-rule="nonzero"></path>
                                        <path d="M14.8167473,11.1050281 C14.9459379,11.1050281 15.0504773,11.017912 15.0504773,10.9102531 L15.0504773,7.54791165 C15.0504773,7.4402528 14.9459379,7.35313665 14.8167473,7.35313665 C14.6875567,7.35313665 14.5830173,7.4402528 14.5830173,7.54791165 L14.5830173,10.9102531 C14.5830173,11.017912 14.6875567,11.1050281 14.8167473,11.1050281 Z" id="Path" fill-rule="nonzero"></path>
                                        <path d="M15.8878576,15.3010599 C14.6766006,16.2391754 13.2226356,16.7348626 11.683837,16.7348626 C10.1484623,16.7348626 8.69639939,16.2391754 7.48514236,15.3010599 C7.40068913,15.2358179 7.27819393,15.2506543 7.21200085,15.3358683 C7.14618821,15.4208922 7.16178544,15.5431972 7.2469995,15.6092001 C8.52711253,16.6003842 10.0613461,17.1244126 11.683837,17.1244126 C13.3097518,17.1244126 14.8458874,16.6003842 16.1260005,15.6092001 C16.2112145,15.5431972 16.2268118,15.4208922 16.1609991,15.3358683 C16.0951865,15.250464 15.9723108,15.2352472 15.8878576,15.3010599 Z" id="Path" fill-rule="nonzero"></path>
                                    </g>
                                </g>
                            </g>
                        </g>
                    </g>
                </g>
            </g>
        </g>
    </g>
</svg>