<?xml version="1.0" encoding="UTF-8"?>
<svg width="24px" height="24px" viewBox="0 0 24 24" version="1.1" xmlns="http://www.w3.org/2000/svg" xmlns:xlink="http://www.w3.org/1999/xlink">
    <!-- Generator: Sketch 58 (84663) - https://sketch.com -->
    <title>Icon / Yellow Copy@1x</title>
    <desc>Created with Sketch.</desc>
    <g id="Desktop" stroke="none" stroke-width="1" fill="none" fill-rule="evenodd">
        <g id="Search-/-Search" transform="translate(-947.000000, -157.000000)" fill="#D8BC92" fill-rule="nonzero">
            <g id="Header" transform="translate(148.000000, -23.000000)">
                <g id="Group-18">
                    <g id="Group-8" transform="translate(799.000000, 180.000000)">
                        <g id="Icon-/-Search-/-Yellow">
                            <path d="M23.7105868,23.7105868 C23.3247024,24.0964711 22.6990603,24.0964711 22.313176,23.7105868 L15.2897869,16.6871977 L15.2897869,16.6871977 C11.603165,19.6755383 6.17934634,19.4547483 2.74942579,16.0248277 C-0.916475264,12.3589267 -0.916475264,6.41532685 2.74942579,2.74942579 C6.41532685,-0.916475264 12.3589267,-0.916475264 16.0248277,2.74942579 C19.4547483,6.17934634 19.6755383,11.603165 16.6871977,15.2897869 L23.7105868,22.313176 C24.0964711,22.6990603 24.0964711,23.3247024 23.7105868,23.7105868 Z M14.5927452,14.6620887 C17.467729,11.787105 17.4522059,7.11031236 14.5580735,4.21617996 C11.6639411,1.32204756 6.98714851,1.30652451 4.11216476,4.18150826 C1.23718101,7.05649191 1.25270416,11.7332846 4.14683646,14.627417 C7.04096886,17.5215493 11.7177616,17.5370725 14.5927452,14.6620887 L14.5927452,14.6620887 Z" id="Shape"></path>
                        </g>
                    </g>
                </g>
            </g>
        </g>
    </g>
</svg>