<?xml version="1.0" encoding="UTF-8"?>
<svg width="152px" height="147px" viewBox="0 0 152 147" version="1.1" xmlns="http://www.w3.org/2000/svg" xmlns:xlink="http://www.w3.org/1999/xlink">
    <!-- Generator: Sketch 58 (84663) - https://sketch.com -->
    <title>Hexagon@1x</title>
    <desc>Created with Sketch.</desc>
    <defs>
        <polygon id="path-1" points="51.292234 13.6543118 12.5609875 80.5731914 51.2668906 147.47742 128.707766 147.462768 167.439012 80.5438882 128.733109 13.6396598"></polygon>
    </defs>
    <g id="Desktop" stroke="none" stroke-width="1" fill="none" fill-rule="evenodd">
        <g id="Scroll---tab" transform="translate(-967.000000, -963.000000)">
            <g id="Hexagon" transform="translate(953.000000, 956.000000)">
                <g id="Color-/-Grey-02">
                    <mask id="mask-2" fill="white">
                        <use xlink:href="#path-1"></use>
                    </mask>
                    <use id="Mask" fill="#27377A" transform="translate(90.000000, 80.558540) rotate(11.000000) translate(-90.000000, -80.558540) " xlink:href="#path-1"></use>
                    <g id="Color-/-Beige" mask="url(#mask-2)" fill="#D8BC92">
                        <g transform="translate(6.279070, -6.272727)" id="Rectangle">
                            <rect x="0" y="0" width="167" height="167"></rect>
                        </g>
                    </g>
                </g>
                <g id="Group-9" opacity="0.6" transform="translate(88.953488, 83.636364) rotate(11.000000) translate(-88.953488, -83.636364) translate(60.697674, 58.545455)" fill="#FFFFFF">
                    <path d="M53.372093,36.0681818 C53.372093,36.9325636 52.6675814,37.6363636 51.8023256,37.6363636 L20.4069767,37.6363636 C19.9906744,37.6363636 19.5913256,37.8013364 19.2968372,38.0955273 L12.5581395,44.8274182 L12.5581395,39.2045455 C12.5581395,38.3382818 11.8555116,37.6363636 10.9883721,37.6363636 L4.70930233,37.6363636 C3.84404651,37.6363636 3.13953488,36.9325636 3.13953488,36.0681818 L3.13953488,4.70454545 C3.13953488,3.84016364 3.84404651,3.13636364 4.70930233,3.13636364 L51.8023256,3.13636364 C52.6675814,3.13636364 53.372093,3.84016364 53.372093,4.70454545 L53.372093,36.0681818 Z M51.8023256,0 L4.70930233,0 C2.11227907,0 0,2.11014545 0,4.70454545 L0,36.0681818 C0,38.6625818 2.11227907,40.7727273 4.70930233,40.7727273 L9.41860465,40.7727273 L9.41860465,48.6136364 C9.41860465,49.2478091 9.801,49.8198818 10.3874651,50.0626364 C10.5821163,50.1429273 10.7855581,50.1818182 10.9883721,50.1818182 C11.3965116,50.1818182 11.7983721,50.0224909 12.0985116,49.7226545 L21.0574884,40.7727273 L51.8023256,40.7727273 C54.3993488,40.7727273 56.5116279,38.6625818 56.5116279,36.0681818 L56.5116279,4.70454545 C56.5116279,2.11014545 54.3993488,0 51.8023256,0 L51.8023256,0 Z" id="Fill-1"></path>
                    <path d="M23.5465116,18.8181818 C24.4136512,18.8181818 25.1162791,18.1162636 25.1162791,17.25 L25.1162791,14.1136364 C25.1162791,13.2473727 24.4136512,12.5454545 23.5465116,12.5454545 C22.6793721,12.5454545 21.9767442,13.2473727 21.9767442,14.1136364 L21.9767442,17.25 C21.9767442,18.1162636 22.6793721,18.8181818 23.5465116,18.8181818" id="Fill-3"></path>
                    <path d="M32.9651163,18.8181818 C33.8322558,18.8181818 34.5348837,18.1162636 34.5348837,17.25 L34.5348837,14.1136364 C34.5348837,13.2473727 33.8322558,12.5454545 32.9651163,12.5454545 C32.0979767,12.5454545 31.3953488,13.2473727 31.3953488,14.1136364 L31.3953488,17.25 C31.3953488,18.1162636 32.0979767,18.8181818 32.9651163,18.8181818" id="Fill-5"></path>
                    <path d="M35.0137884,25.5313173 C31.2871605,29.1262173 25.2234628,29.1262173 21.4974628,25.5313173 C20.8726953,24.9291355 19.8793465,24.9466991 19.2778116,25.5702082 C18.6756488,26.1937173 18.6926023,27.1860627 19.3167419,27.7876173 C21.7812767,30.1656082 25.019393,31.35429 28.2562535,31.35429 C31.4943698,31.35429 34.7318581,30.1649809 37.196393,27.7876173 C37.8199047,27.1860627 37.8368581,26.19309 37.2346953,25.5702082 C36.6312767,24.9473264 35.6373,24.9291355 35.0137884,25.5313173" id="Fill-7"></path>
                </g>
            </g>
        </g>
    </g>
</svg>