<?xml version="1.0" encoding="UTF-8"?>
<svg width="173px" height="115px" viewBox="0 0 173 115" version="1.1" xmlns="http://www.w3.org/2000/svg" xmlns:xlink="http://www.w3.org/1999/xlink">
    <!-- Generator: Sketch 58 (84663) - https://sketch.com -->
    <title>Star@1x</title>
    <desc>Created with Sketch.</desc>
    <defs>
        <path d="M147.117557,1.38852459 C147.117557,0.919203279 147.156326,0.460990164 147.186788,0 L22.4329419,0 C22.4634034,0.460990164 22.5021726,0.919203279 22.5021726,1.38852459 C22.5021726,12.8938393 13.2030957,22.2163934 1.73294185,22.2163934 C1.26494185,22.2163934 0.808018776,22.1747377 0.348326468,22.1469672 L0.348326468,75.0497541 C0.808018776,75.0219836 1.26494185,74.9803279 1.73294185,74.9803279 C13.2030957,74.9803279 22.5021726,84.302882 22.5021726,95.8081967 C22.5021726,96.277518 22.4634034,96.7357311 22.4329419,97.1967213 L147.186788,97.1967213 C147.156326,96.7357311 147.117557,96.277518 147.117557,95.8081967 C147.117557,84.7722033 155.680019,75.7662328 166.502173,75.0497541 L166.502173,22.1469672 C155.680019,21.4304885 147.117557,12.424518 147.117557,1.38852459 Z" id="path-1"></path>
        <polygon id="path-3" points="0 0.00104139344 19.6217308 0.00104139344 19.6217308 18.7133939 0 18.7133939"></polygon>
        <polygon id="path-5" points="0 0.00104139344 19.6217308 0.00104139344 19.6217308 18.7133939 0 18.7133939"></polygon>
        <polygon id="path-7" points="0 0.00104139344 19.6217308 0.00104139344 19.6217308 18.7133939 0 18.7133939"></polygon>
    </defs>
    <g id="Desktop" stroke="none" stroke-width="1" fill="none" fill-rule="evenodd">
        <g id="Scroll---tab" transform="translate(-281.000000, -336.000000)">
            <g id="Star" transform="translate(278.000000, 333.000000)">
                <g id="Color-/-Beige" transform="translate(90.000000, 60.500000) rotate(-8.000000) translate(-90.000000, -60.500000) translate(5.934066, 11.901639)">
                    <mask id="mask-2" fill="white">
                        <use xlink:href="#path-1"></use>
                    </mask>
                    <g id="Mask"></g>
                    <g mask="url(#mask-2)" fill="#D8BC92" id="Rectangle">
                        <g transform="translate(-19.780220, -27.770492)">
                            <rect x="0" y="0" width="261" height="159"></rect>
                        </g>
                    </g>
                </g>
                <g id="Group-8" transform="translate(90.989011, 57.524590) rotate(-7.000000) translate(-90.989011, -57.524590) translate(45.494505, 47.606557)">
                    <g id="Group-3">
                        <mask id="mask-4" fill="white">
                            <use xlink:href="#path-3"></use>
                        </mask>
                        <g id="Clip-2"></g>
                        <path d="M9.81074176,0.000545491803 L6.77942308,6.15964385 L-0.000247252747,7.14896762 L4.90524725,11.941857 L3.7481044,18.7133939 L9.81074176,15.5173078 L15.8733791,18.7133939 L14.7162363,11.941857 L19.6217308,7.14896762 L12.8420604,6.15964385 L9.81074176,0.000545491803 Z M9.81074176,3.91568893 L11.2942582,6.92829139 C11.5439835,7.43907008 12.0310714,7.79363975 12.5923352,7.87546352 L15.9079945,8.35896762 L13.5096429,10.7021029 C13.1041484,11.1013037 12.9162363,11.6740701 13.0126648,12.2369184 L13.5788736,15.5470619 L10.6143132,13.9849717 C10.3645879,13.8510783 10.0876648,13.7841316 9.81074176,13.7841316 C9.53381868,13.7841316 9.2568956,13.8510783 9.00717033,13.9849717 L6.04260989,15.5470619 L6.60881868,12.2369184 C6.70524725,11.6740701 6.51733516,11.1013037 6.11184066,10.7021029 L3.71348901,8.35896762 L7.02914835,7.87546352 C7.59041209,7.79363975 8.0775,7.43907008 8.32722527,6.92829139 L9.81074176,3.91568893 L9.81074176,3.91568893 Z" id="Fill-1" fill="#FFFFFF" opacity="0.601167225" mask="url(#mask-4)"></path>
                    </g>
                    <g id="Group-3-Copy-2" transform="translate(35.604396, 0.000000)">
                        <mask id="mask-6" fill="white">
                            <use xlink:href="#path-5"></use>
                        </mask>
                        <g id="Clip-2"></g>
                        <path d="M9.81074176,0.000545491803 L6.77942308,6.15964385 L-0.000247252747,7.14896762 L4.90524725,11.941857 L3.7481044,18.7133939 L9.81074176,15.5173078 L15.8733791,18.7133939 L14.7162363,11.941857 L19.6217308,7.14896762 L12.8420604,6.15964385 L9.81074176,0.000545491803 Z M9.81074176,3.91568893 L11.2942582,6.92829139 C11.5439835,7.43907008 12.0310714,7.79363975 12.5923352,7.87546352 L15.9079945,8.35896762 L13.5096429,10.7021029 C13.1041484,11.1013037 12.9162363,11.6740701 13.0126648,12.2369184 L13.5788736,15.5470619 L10.6143132,13.9849717 C10.3645879,13.8510783 10.0876648,13.7841316 9.81074176,13.7841316 C9.53381868,13.7841316 9.2568956,13.8510783 9.00717033,13.9849717 L6.04260989,15.5470619 L6.60881868,12.2369184 C6.70524725,11.6740701 6.51733516,11.1013037 6.11184066,10.7021029 L3.71348901,8.35896762 L7.02914835,7.87546352 C7.59041209,7.79363975 8.0775,7.43907008 8.32722527,6.92829139 L9.81074176,3.91568893 L9.81074176,3.91568893 Z" id="Fill-1" fill="#FFFFFF" opacity="0.601167225" mask="url(#mask-6)"></path>
                    </g>
                    <g id="Group-3-Copy-3" transform="translate(71.208791, 0.000000)">
                        <mask id="mask-8" fill="white">
                            <use xlink:href="#path-7"></use>
                        </mask>
                        <g id="Clip-2"></g>
                        <path d="M9.81074176,0.000545491803 L6.77942308,6.15964385 L-0.000247252747,7.14896762 L4.90524725,11.941857 L3.7481044,18.7133939 L9.81074176,15.5173078 L15.8733791,18.7133939 L14.7162363,11.941857 L19.6217308,7.14896762 L12.8420604,6.15964385 L9.81074176,0.000545491803 Z M9.81074176,3.91568893 L11.2942582,6.92829139 C11.5439835,7.43907008 12.0310714,7.79363975 12.5923352,7.87546352 L15.9079945,8.35896762 L13.5096429,10.7021029 C13.1041484,11.1013037 12.9162363,11.6740701 13.0126648,12.2369184 L13.5788736,15.5470619 L10.6143132,13.9849717 C10.3645879,13.8510783 10.0876648,13.7841316 9.81074176,13.7841316 C9.53381868,13.7841316 9.2568956,13.8510783 9.00717033,13.9849717 L6.04260989,15.5470619 L6.60881868,12.2369184 C6.70524725,11.6740701 6.51733516,11.1013037 6.11184066,10.7021029 L3.71348901,8.35896762 L7.02914835,7.87546352 C7.59041209,7.79363975 8.0775,7.43907008 8.32722527,6.92829139 L9.81074176,3.91568893 L9.81074176,3.91568893 Z" id="Fill-1" fill="#FFFFFF" opacity="0.601167225" mask="url(#mask-8)"></path>
                    </g>
                </g>
            </g>
        </g>
    </g>
</svg>