<?xml version="1.0" encoding="UTF-8"?>
<svg width="266px" height="114px" viewBox="0 0 266 114" version="1.1" xmlns="http://www.w3.org/2000/svg" xmlns:xlink="http://www.w3.org/1999/xlink">
    <!-- Generator: Sketch 58 (84663) - https://sketch.com -->
    <title>Tag@1x</title>
    <desc>Created with Sketch.</desc>
    <defs>
        <path d="M274.214006,58.9596884 C274.216698,49.9786223 269.116965,42.2061067 261.667798,38.3474338 L261.672346,23.1784654 L18.3491148,23.2515483 L18.3445662,38.4205167 C10.8930829,42.2836651 5.78868847,50.0592455 5.78599436,59.0403116 C5.78330238,68.0213777 10.8830346,75.7938933 18.332203,79.6506318 L18.3276539,94.8215346 L261.650885,94.7484517 L261.655434,79.577549 C269.106917,75.7163349 274.211312,67.9407545 274.214006,58.9596884 Z" id="path-1"></path>
    </defs>
    <g id="Desktop" stroke="none" stroke-width="1" fill="none" fill-rule="evenodd">
        <g id="Scroll---tab" transform="translate(-271.000000, -955.000000)">
            <g id="Tag" transform="translate(264.000000, 953.000000)">
                <g id="Color-/-Blue">
                    <mask id="mask-2" fill="white">
                        <use xlink:href="#path-1"></use>
                    </mask>
                    <use id="Mask" fill="#D8D8D8" transform="translate(140.000000, 59.000000) rotate(-10.000000) translate(-140.000000, -59.000000) " xlink:href="#path-1"></use>
                    <g id="Color-/-BLUE" mask="url(#mask-2)" fill="#1E315C">
                        <g transform="translate(-17.379310, -19.344262)" id="Rectangle">
                            <rect x="0" y="0" width="317" height="155"></rect>
                        </g>
                    </g>
                </g>
                <g id="Group-10" transform="translate(90.758621, 38.688525)" opacity="0.6">
                    <g id="Group-7" transform="translate(71.448276, 18.377049) rotate(-10.000000) translate(-71.448276, -18.377049) translate(54.068966, 3.868852)" stroke="#FFFFFF" stroke-linecap="round" stroke-width="1.04">
                        <path d="M13.5956568,21.9891955 L13.5956568,21.9891955 C6.42456717,21.9891955 0.610454069,16.1648703 0.610454069,8.98118505 L0.610454069,1.68607685 C0.610454069,1.09305915 1.09120441,0.61208341 1.68318234,0.61208341 L25.5081313,0.61208341 C26.1001092,0.61208341 26.5808596,1.09305915 26.5808596,1.68607685 L26.5808596,8.98118505 C26.5808596,16.1648703 20.7667465,21.9891955 13.5956568,21.9891955 Z" id="Stroke-1"></path>
                        <path d="M5.56255338,26.9122948 L21.6287603,26.9122948" id="Stroke-3"></path>
                        <path d="M27.1240828,3.63690702 L28.0312055,3.63690702 C30.8390841,3.63690702 33.1143062,5.91674439 33.1143062,8.72893587 C33.1143062,11.5417464 30.8390841,13.8215837 28.0312055,13.8215837 L26.1174731,13.8215837" id="Stroke-5"></path>
                    </g>
                    <path d="M17.3719155,40.6220638 C17.2005957,40.6220638 17.0296466,40.5522457 16.8985754,40.416085 L6.11649174,29.1886452 C3.10989569,26.0569469 3.11142328,20.9625543 6.11989812,17.8286852 C9.12872248,14.6951801 14.019726,14.6937111 17.0263221,17.8254094 C17.1469074,17.9513765 17.2646935,18.0842636 17.382128,18.2240701 C17.49615,18.0841941 17.6171626,17.9512352 17.7378234,17.8251957 C20.7466478,14.6916906 25.6376513,14.6902216 28.6442474,17.8219199 C31.651193,20.9539823 31.6496654,26.0483749 28.640841,29.18188 L17.8453791,40.4158006 C17.7142263,40.55204 17.5432352,40.6220638 17.3719155,40.6220638 Z" id="Stroke-1" fill="#FFFFFF" transform="translate(17.380501, 28.048085) rotate(-10.000000) translate(-17.380501, -28.048085) "></path>
                </g>
            </g>
        </g>
    </g>
</svg>