<?xml version="1.0" encoding="UTF-8"?>
<svg width="10px" height="20px" viewBox="0 0 10 20" version="1.1" xmlns="http://www.w3.org/2000/svg" xmlns:xlink="http://www.w3.org/1999/xlink">
    <!-- Generator: Sketch 58 (84663) - https://sketch.com -->
    <title>Icon / Social / Facebook / Beige@1x</title>
    <desc>Created with Sketch.</desc>
    <g id="Desktop" stroke="none" stroke-width="1" fill="none" fill-rule="evenodd">
        <g id="Review-Content" transform="translate(-587.000000, -6056.000000)" fill="#AB9E91">
            <g id="Group-17" transform="translate(-1199.000000, 5921.000000)">
                <g id="Group-16" transform="translate(1199.000000, 108.000000)">
                    <g id="Icon-/-Social-/-Facebook-/-Beige" transform="translate(582.000000, 27.000000)">
                        <g id="06-facebook" transform="translate(5.000000, 0.000000)">
                            <path d="M9.313425,6.2562525 L6.2745375,6.2562525 L6.2745375,4.2631875 C6.2745375,3.514695 6.7706175,3.3401925 7.12002,3.3401925 C7.4686275,3.3401925 9.2645325,3.3401925 9.2645325,3.3401925 L9.2645325,0.0496875 L6.3111075,0.03816 C3.0325275,0.03816 2.28642,2.492325 2.28642,4.0628475 L2.28642,6.2562525 L0.390345,6.2562525 L0.390345,9.6469275 L2.28642,9.6469275 C2.28642,13.99836 2.28642,19.241385 2.28642,19.241385 L6.2745375,19.241385 C6.2745375,19.241385 6.2745375,13.946685 6.2745375,9.6469275 L8.9656125,9.6469275 L9.313425,6.2562525 Z" id="Path" fill-rule="nonzero"></path>
                        </g>
                    </g>
                </g>
            </g>
        </g>
    </g>
</svg>