<?xml version="1.0" encoding="UTF-8"?>
<svg width="20px" height="20px" viewBox="0 0 20 20" version="1.1" xmlns="http://www.w3.org/2000/svg" xmlns:xlink="http://www.w3.org/1999/xlink">
    <!-- Generator: Sketch 58 (84663) - https://sketch.com -->
    <title>Icon / Social / Facebook / Beige Copy@1x</title>
    <desc>Created with Sketch.</desc>
    <g id="Desktop" stroke="none" stroke-width="1" fill="none" fill-rule="evenodd">
        <g id="Review-Content" transform="translate(-710.000000, -6056.000000)" fill="#AB9E91">
            <g id="Group-17" transform="translate(-1199.000000, 5921.000000)">
                <g id="Group-16" transform="translate(1199.000000, 108.000000)">
                    <g id="Icon-/-Social-/-Instagram-/-Biege" transform="translate(710.000000, 27.000000)">
                        <g id="38-instagram">
                            <path d="M9.81666,4.947285 C7.08981,4.947285 4.83042,7.16772 4.83042,9.933525 C4.83042,12.69933 7.050855,14.919765 9.81666,14.919765 C12.582465,14.919765 14.8029,12.660375 14.8029,9.933525 C14.8029,7.206675 12.54351,4.947285 9.81666,4.947285 Z M9.81666,13.127835 C8.063685,13.127835 6.62235,11.6865 6.62235,9.933525 C6.62235,8.18055 8.063685,6.739215 9.81666,6.739215 C11.569635,6.739215 13.01097,8.18055 13.01097,9.933525 C13.01097,11.6865 11.569635,13.127835 9.81666,13.127835 Z" id="Shape" fill-rule="nonzero"></path>
                            <circle id="Oval" fill-rule="nonzero" cx="14.997675" cy="4.83042" r="1.129695"></circle>
                            <path d="M17.9193,1.908795 C16.90647,0.85701 15.465135,0.31164 13.829025,0.31164 L5.804295,0.31164 C2.41521,0.31164 0.15582,2.57103 0.15582,5.960115 L0.15582,13.94589 C0.15582,15.620955 0.70119,17.06229 1.79193,18.114075 C2.843715,19.126905 4.246095,19.63332 5.84325,19.63332 L13.79007,19.63332 C15.465135,19.63332 16.867515,19.08795 17.880345,18.114075 C18.93213,17.101245 19.4775,15.65991 19.4775,13.984845 L19.4775,5.960115 C19.4775,4.324005 18.93213,2.921625 17.9193,1.908795 Z M17.68557,13.984845 C17.68557,15.19245 17.334975,16.166325 16.633785,16.82856 C15.932595,17.490795 14.95872,17.84139 13.79007,17.84139 L5.84325,17.84139 C4.6746,17.84139 3.700725,17.490795 2.999535,16.82856 C2.298345,16.12737 1.94775,15.153495 1.94775,13.94589 L1.94775,5.960115 C1.94775,4.791465 2.298345,3.81759 2.999535,3.1164 C3.66177,2.454165 4.6746,2.10357 5.84325,2.10357 L13.86798,2.10357 C15.03663,2.10357 16.010505,2.454165 16.711695,3.155355 C17.37393,3.856545 17.76348,4.83042 17.76348,5.960115 L17.76348,13.984845 L17.68557,13.984845 Z" id="Shape" fill-rule="nonzero"></path>
                        </g>
                    </g>
                </g>
            </g>
        </g>
    </g>
</svg>