<?xml version="1.0" encoding="UTF-8"?>
<svg width="22px" height="18px" viewBox="0 0 22 18" version="1.1" xmlns="http://www.w3.org/2000/svg" xmlns:xlink="http://www.w3.org/1999/xlink">
    <!-- Generator: Sketch 58 (84663) - https://sketch.com -->
    <title>Icon / Social / Facebook / Beige Copy 2@1x</title>
    <desc>Created with Sketch.</desc>
    <g id="Desktop" stroke="none" stroke-width="1" fill="none" fill-rule="evenodd">
        <g id="Review-Content" transform="translate(-837.000000, -6056.000000)" fill="#AB9E91">
            <g id="Group-17" transform="translate(-1199.000000, 5921.000000)">
                <g id="Group-16" transform="translate(1199.000000, 108.000000)">
                    <g id="Icon-/-Social-/-Twitter-/-Beige" transform="translate(838.000000, 27.000000)">
                        <g id="03-twitter" transform="translate(-0.547619, 0.000000)">
                            <path d="M21.1069062,2.3727158 C20.3434551,2.71676921 19.5223921,2.9489315 18.6603645,3.05308387 C19.5400929,2.51864028 20.2152509,1.67186784 20.5334012,0.662282506 C19.7102732,1.15769034 18.7990627,1.51739226 17.8285547,1.71133115 C17.0517436,0.871485108 15.9446025,0.34661874 14.7195827,0.34661874 C12.3672343,0.34661874 10.4600605,2.28147558 10.4600605,4.66791589 C10.4600605,5.00653936 10.4976957,5.33618417 10.5703531,5.65244651 C7.03024088,5.47248866 3.89138828,3.75226437 1.79055952,1.13763802 C1.4240271,1.77563541 1.2139358,2.51782792 1.2139358,3.31008711 C1.2139358,4.80922278 1.96588145,6.13177828 3.10880344,6.90693528 C2.41076085,6.88418936 1.75368291,6.69003669 1.17954573,6.36620662 C1.17916642,6.38416393 1.17916642,6.40233501 1.17916642,6.42093365 C1.17916642,8.51424233 2.64744546,10.2607613 4.59621616,10.6580452 C4.23874486,10.7565966 3.86239273,10.8096134 3.47386078,10.8096134 C3.19911952,10.8096134 2.93242789,10.7826775 2.67231083,10.7319695 C3.21458662,12.4486451 4.78759522,13.6981314 6.65119149,13.7329772 C5.19340649,14.8920784 3.3569514,15.5828789 1.36106293,15.5828789 C1.01741508,15.5828789 0.678487447,15.5621852 0.345122908,15.5225509 C2.23050799,16.748821 4.46923419,17.4640776 6.87464267,17.4640776 C14.7096786,17.4640776 18.9937291,10.8793476 18.9937291,5.1689247 C18.9937291,4.98186944 18.9900203,4.79502796 18.9818021,4.60985394 C19.8137805,4.00067375 20.536267,3.23954056 21.1069062,2.3727158 Z" id="Path" fill-rule="nonzero"></path>
                        </g>
                    </g>
                </g>
            </g>
        </g>
    </g>
</svg>